<?xml version="1.0" encoding="UTF-8"?>
<svg width="64.079mm" height="62.53mm" version="1.1" viewBox="0 0 64.079 62.53" xml:space="preserve" xmlns="http://www.w3.org/2000/svg"><g transform="translate(-.56016 -.73518)"><path d="m32.733 58.279c-0.81155-12.179-2.258-20.844-3.6967-22.146-1.4413-1.3044-8.1938-2.5215-20.004-3.6057-3.1939-0.2932-6.3858-0.53309-7.0932-0.53309-0.70738 0-1.224-0.10051-1.1481-0.22337 0.07593-0.12285 1.8005-0.30272 3.8323-0.39971 7.4145-0.35395 17.593-1.5274 21.064-2.4284 2.3957-0.62185 3.3807-1.1937 3.9059-2.2676 1.064-2.1756 2.1833-9.111 3.1125-19.287 0.31228-3.4197 0.60251-6.2528 0.64495-6.2956 0.0425-0.04284 0.15777 1.0882 0.25628 2.5135 0.58583 8.4764 1.6 16.949 2.3929 19.989 0.91206 3.4975 1.2842 3.8832 4.5264 4.6913 4.1616 1.0372 9.2028 1.7155 19.425 2.6135 6.1795 0.54284 6.1103 0.57331-2.7781 1.2228-9.3827 0.6856-15.916 1.6658-18.508 2.7767-0.99634 0.42709-1.3087 0.73603-1.7243 1.7056-1.2203 2.8469-2.7605 13.334-3.3448 22.774-0.0991 1.6007-0.25898 3.1302-0.35534 3.3988-0.0964 0.26859-0.32473-1.7555-0.50747-4.4979z" fill="#fff"/><g/></g>
<style>
path, g { fill: #000000; }
  @media (prefers-color-scheme: dark) { path, g { fill: #ffffff; }
}
</style>
</svg>
